<?xml version="1.0" standalone="no"?>
<!DOCTYPE svg PUBLIC "-//W3C//DTD SVG 1.1//EN" "http://www.w3.org/Graphics/SVG/1.1/DTD/svg11.dtd" >
<svg xmlns="http://www.w3.org/2000/svg">
<metadata></metadata>
<defs>
<font id="milkywellregular" horiz-adv-x="1748" >
<font-face units-per-em="2048" ascent="1638" descent="-410" />
<missing-glyph horiz-adv-x="512" />
<glyph horiz-adv-x="2048" />
<glyph horiz-adv-x="2048" />
<glyph unicode="&#xd;" horiz-adv-x="512" />
<glyph horiz-adv-x="1208" />
<glyph unicode=" "  horiz-adv-x="512" />
<glyph unicode="&#x09;" horiz-adv-x="512" />
<glyph unicode="&#xa0;" horiz-adv-x="512" />
<glyph unicode="!" horiz-adv-x="813" d="M0 655q0 -133 95.5 -227t226.5 -94h65q133 0 228.5 94t95.5 227v37q0 133 -95.5 227.5t-228.5 94.5h-65q-131 0 -226.5 -94.5t-95.5 -227.5v-37zM31 139q0 -57 87 -98t208 -41h59q121 0 208 41t87 98t-87 98.5t-208 41.5h-59q-121 0 -208 -41t-87 -99z" />
<glyph unicode="&#x22;" horiz-adv-x="780" d="M2 834l45 -248q16 -92 109 -90q92 0 106 92l41 248q10 61 -36 114.5t-115 53.5q-70 0 -116 -54.5t-34 -115.5zM375 834l45 -248q16 -92 108 -90q92 0 107 92l41 248q10 61 -36 114.5t-116 53.5t-116 -54.5t-33 -115.5z" />
<glyph unicode="#" horiz-adv-x="1761" d="M0 326q0 -43 33 -74t78 -31h43q55 0 71 -43q90 -174 287 -174h66q92 0 170.5 50t117.5 132q23 35 60 35h84q41 -4 51 -45q14 -74 71.5 -123t131.5 -49t131 49t71 123q10 45 52 45h30q45 0 78 31t33 74t-33 73.5t-78 30.5h-30q-43 0 -48 43v74q4 51 52 47h26q45 0 78 30.5 t33 73.5t-33 74t-78 31h-35q-41 0 -47 45q-12 74 -69.5 123t-132.5 49q-74 0 -130.5 -49t-70.5 -121q-39 -47 -55 -47h-86q-47 0 -60 45q-92 174 -284 174h-66q-188 0 -283 -168q-63 -51 -75 -51h-43q-45 0 -78 -31t-33 -74t33 -73.5t78 -30.5h32q41 0 45 -47v-62 q-4 -55 -49 -55h-28q-45 0 -78 -30.5t-33 -73.5zM899 489v46q0 59 59 59h39q59 0 60 -59v-46q0 -59 -60 -59h-39q-59 0 -59 59z" />
<glyph unicode="$" horiz-adv-x="1777" d="M0 705q12 -86 68 -150q137 -150 477 -149h456q209 0 226 -97q-4 -27 -29 -47q-55 -45 -197 -49q-408 -10 -849 70q-14 2 -29 2q-82 0 -109 -82q0 -109 115 -135q174 -41 422 -58q86 -6 106 -80q14 -53 67.5 -84.5t115.5 -31.5q133 0 188 125q10 18 25 32q33 31 77 31 q340 10 476 164q57 63 69 151q-12 88 -69 150q-136 149 -476 149h-155q-209 0 -225 99q4 27 28 45q55 47 197 49q311 6 532 -49q16 -4 33 -4q78 0 105 80q0 111 -117 135q-176 39 -400 51q-82 6 -112 88q-39 102 -176 102q-119 0 -178 -110q-14 -23 -31 -41q-39 -41 -86 -41 q-340 -8 -477 -164q-55 -63 -68 -151z" />
<glyph unicode="%" horiz-adv-x="1740" d="M0 764q20 -231 299 -232h174q279 0 299 232q-20 227 -299 227h-174q-279 0 -299 -227zM291 63q0 -41 27.5 -67.5t66.5 -26.5q43 0 76 31l837 848q31 33 31 76q0 41 -27.5 67.5t-66.5 26.5q-45 0 -76 -31l-837 -848q-31 -33 -31 -76zM313 760q8 135 131 135h13 q121 0 131 -135q-10 -133 -131 -133h-13q-123 0 -131 133zM868 256q20 -231 297 -231h176q276 0 297 231q-21 225 -297 225h-176q-276 0 -297 -225zM1180 252q10 135 131 135h12q123 0 133 -135q-10 -133 -133 -133h-12q-121 0 -131 133z" />
<glyph unicode="&#x26;" horiz-adv-x="1765" d="M0 295q0 131 139 211q-139 80 -139 211q12 76 76 133q152 141 530 172q117 10 234 10q338 0 600 -69q115 -23 114 -136q-31 -92 -137 -79q-252 63 -428 63q-47 0 -82 -6q-209 0 -225 -98q16 -96 225 -97h90q47 0 80 -30.5t33 -73.5t-33 -74t-80 -31h-90q-209 0 -225 -96 q10 -94 152 -82q100 8 210 58q18 8 35 8q41 0 76 -39q51 -47 125 -47q70 0 125 39t55 90q0 35 -24 65q-14 25 -15 52q0 43 30 73.5t73 30.5q59 0 90 -53q49 -86 49 -174q0 -135 -106.5 -229.5t-258.5 -94.5q-119 0 -233 64q-283 -70 -459 -68q-379 4 -530 152 q-63 61 -76 145z" />
<glyph unicode="'" horiz-adv-x="407" d="M2 834l45 -248q16 -92 109 -90q92 0 106 92l41 248q10 61 -36 114.5t-115 53.5q-70 0 -116 -54.5t-34 -115.5z" />
<glyph unicode="(" horiz-adv-x="886" d="M0 514q12 -158 80 -268q160 -270 559 -271h27q43 0 80.5 33t37.5 78q-2 31 -14 53q-28 56 -98 60q-248 49 -248 305q0 260 248 309q104 8 112 113q0 45 -37.5 77.5t-80.5 32.5h-27q-399 0 -559 -262q-68 -109 -80 -260z" />
<glyph unicode=")" horiz-adv-x="886" d="M0 86q2 31 14 53q29 56 99 60q248 49 247 305q0 260 -247 309q-104 8 -113 113q0 45 38 77.5t81 32.5h26q399 0 560 -262q68 -109 79 -260q-12 -158 -79 -268q-160 -270 -560 -271h-26q-43 0 -81 33t-38 78z" />
<glyph unicode="*" horiz-adv-x="813" d="M0 506q0 -86 115 -86q53 0 129 18q-113 -109 -113 -178q0 -41 43 -65q23 -12 43 -13q82 0 137 191q49 -195 131 -195q20 0 43 12q43 25 43 68q0 70 -110 182q80 -20 137 -20q113 0 113 86q0 84 -107 84q-55 0 -139 -25q106 111 106 178q0 43 -43 68q-23 14 -43 14 q-82 0 -131 -196q-55 190 -137 190q-20 0 -43 -12q-43 -25 -43 -66q0 -68 109 -174q-80 23 -134 23q-106 0 -106 -84z" />
<glyph unicode="+" horiz-adv-x="765" d="M0 387q0 -51 39 -88t94 -37h74v-72q0 -55 37 -95t88 -40t88 40t37 95v72h73q55 0 94.5 37t39.5 88q0 53 -39.5 90t-94.5 37h-73v72q0 55 -37 94t-88 39t-88 -39t-37 -94v-72h-74q-55 0 -94 -37t-39 -90z" />
<glyph unicode="," horiz-adv-x="466" d="M0 184q0 -72 49 -124t121 -56q-16 -18 -32.5 -33.5t-16.5 -31.5q0 -18 13 -29.5t26 -11.5q18 0 51 18q154 102 154 268q0 76 -53.5 129.5t-129.5 53.5t-129 -53.5t-53 -129.5z" />
<glyph unicode="-" horiz-adv-x="765" d="M0 387q0 -51 39 -88t94 -37h397q55 0 94.5 37t39.5 88q0 53 -39 90t-95 37h-397q-55 0 -94 -37t-39 -90z" />
<glyph unicode="." horiz-adv-x="466" d="M0 184q0 -76 53 -129t129 -53t129.5 53.5t53.5 128.5q0 76 -53.5 129.5t-129.5 53.5t-129 -53.5t-53 -129.5z" />
<glyph unicode="/" horiz-adv-x="806" d="M0 106q0 -82 68 -118q29 -16 63 -17q84 0 127 76l426 780q20 35 21 74q0 82 -68 119q-31 16 -64 16q-86 0 -127 -75l-428 -781q-18 -35 -18 -74z" />
<glyph unicode="0" horiz-adv-x="1949" d="M0 518q14 -152 86 -260q172 -258 604 -258h447q432 0 604 258q72 109 86 260q-14 145 -86 250q-172 250 -604 250h-447q-432 0 -604 -250q-72 -104 -86 -250zM725 508q6 88 39 151q76 150 266 150h66q190 0 266 -150q33 -63 39 -151q-6 -86 -39 -150q-76 -147 -266 -147 h-66q-190 0 -266 147q-33 63 -39 150z" />
<glyph unicode="1" horiz-adv-x="1046" d="M0 717q6 90 102 96q147 0 217 102q31 43 101 74q61 27 115 27h65q133 0 228.5 -95.5t95.5 -228.5v-370q0 -133 -95.5 -228.5t-228.5 -95.5h-65q-133 0 -227.5 95t-94.5 229v237q-6 66 -70 66h-41q-29 2 -49 10q-51 25 -53 82z" />
<glyph unicode="2" horiz-adv-x="1802" d="M0 297q23 -299 324 -299h1212q47 0 80 30.5t33 73.5t-33 74t-80 31h-713q-31 2 -51 12q-51 25 -53 84q16 96 225 96h191q340 0 475 150q57 63 69 149q-12 86 -69 150q-135 154 -475 166q-109 4 -213 4q-469 0 -785 -68q-117 -23 -117 -137q31 -88 138 -78q444 78 848 68 q209 -4 225 -94q-16 -98 -225 -99h-461q-162 -6 -277 -39q-274 -80 -268 -274z" />
<glyph unicode="3" horiz-adv-x="1783" d="M0 201q0 -113 115 -135q319 -72 942 -68q379 2 530 152q61 61 74 145q0 131 -137 211q137 80 137 211q-12 82 -74 141q-152 143 -530 156q-68 2 -135 2q-418 0 -807 -68q-115 -23 -115 -135q31 -92 137 -80q336 80 619 72q209 -4 225 -98q-16 -96 -225 -97h-172 q-45 0 -78 -30.5t-33 -73.5t33 -74t78 -31h172q209 0 225 -96q-4 -29 -29 -49q-55 -49 -196 -49q-285 -4 -619 74q-106 12 -137 -80z" />
<glyph unicode="4" horiz-adv-x="1875" d="M0 696q16 -150 88 -258q174 -254 604 -254h426q90 0 119 -63q55 -123 186 -123q66 0 118 39t75 102q16 49 72 49q37 0 61.5 32t24.5 71q0 77 -82 100q-63 4 -64 64v344q0 88 -60.5 151.5t-144.5 63.5q-86 0 -146 -63.5t-60 -151.5v-305q0 -94 -99 -101h-88q-90 6 -156 37 q-158 74 -163 260q-2 135 -96.5 229.5t-227.5 94.5h-63q-94 -6 -162 -39q-160 -80 -162 -279z" />
<glyph unicode="5" horiz-adv-x="1802" d="M0 719q23 297 324 297h1214q45 0 78 -31t33 -74t-33 -73.5t-78 -30.5h-715q-31 -2 -51 -12q-51 -25 -53 -84q16 -96 225 -97h191q340 0 475 -149q57 -63 69 -150q-12 -86 -69 -149q-135 -154 -475 -166q-109 -4 -213 -4q-469 0 -785 67q-117 23 -117 138q31 88 138 80 q444 -80 848 -70q209 4 225 94q-16 98 -225 98h-682q-98 6 -166 39q-164 80 -158 277z" />
<glyph unicode="6" horiz-adv-x="1861" d="M0 514q14 -150 86 -258q174 -258 604 -258h504q340 0 477 176q55 74 68 176q-12 88 -68 152q-137 154 -477 162q-299 8 -387 -17q-12 -2 -23 -2q-57 0 -45 64q8 27 35 47q59 47 191 49q381 8 606 -49q16 -4 33 -4q80 0 104 79q0 106 -115 136q-291 61 -643 61 q-156 0 -305 -14q-227 -20 -381 -96q-264 -131 -264 -404zM741 342q0 121 275 135q256 4 274 -135q0 -121 -274 -135q-254 6 -275 135z" />
<glyph unicode="7" horiz-adv-x="1798" d="M0 901q0 -43 33 -73.5t78 -30.5h761q88 0 89 -80q0 -12 -5 -27l-79 -272q-12 -45 -13 -90q0 -106 63.5 -193.5t170.5 -118.5l61 -18q43 -12 90 -12q106 0 193.5 64.5t118.5 168.5l102 356q12 43 12 89q0 104 -64.5 191t-168.5 120q-78 25 -158 31h-1173q-45 0 -78 -31 t-33 -74z" />
<glyph unicode="8" horiz-adv-x="1808" d="M0 295q12 -86 76 -148q150 -150 530 -149h473q379 0 531 149q63 63 76 150q0 129 -140 209q139 80 140 211q-12 86 -76 149q-152 147 -531 148l-473 2q-381 0 -530 -150q-63 -61 -76 -149q0 -131 139 -211q-139 -80 -139 -211zM682 305q16 96 225 96h117q70 0 129 -18 q84 -27 84 -78q0 -69 -145 -92q-27 -4 -185 -6q-209 -2 -225 98zM682 707q4 29 27 49q57 49 198 49q59 2 168 -2q162 -20 162 -94q-4 -29 -29 -47q-55 -50 -196 -50l-105 -2q-209 -2 -225 97z" />
<glyph unicode="9" horiz-adv-x="1843" d="M0 662q12 -82 68 -144q137 -150 477 -170q129 -8 252 -8q221 0 366 25q10 2 21 2q57 0 47 -64q-12 -25 -45 -43q-78 -43 -248 -53q-307 -14 -764 119q-14 2 -27 2q-84 0 -108 -78q0 -90 115 -135q348 -119 743 -119q53 0 104 2q229 10 418 94q301 135 301 406 q-14 152 -88 258q-178 258 -620 258h-328q-428 0 -598 -176q-72 -74 -86 -176zM678 672q0 119 274 133q256 -4 275 -133q0 -123 -275 -137q-254 -4 -274 137z" />
<glyph unicode=":" horiz-adv-x="397" d="M0 283q0 -61 43 -104.5t104 -43.5t104.5 43t43.5 105q0 61 -43.5 104t-104.5 43t-104 -43t-43 -104zM0 727q0 -61 43 -104t104 -43t104.5 43t43.5 104t-43.5 104t-104.5 43t-104 -43t-43 -104z" />
<glyph unicode=";" horiz-adv-x="399" d="M0 283q0 -57 40 -99.5t97 -46.5q-12 -16 -25.5 -28.5t-13.5 -24.5q0 -14 13 -27q18 -14 61 9q123 82 123 217q0 61 -43 104t-105 43q-61 0 -104 -43t-43 -104zM2 727q0 -61 43 -104t105 -43q61 0 104 43t43 104t-43 104t-104 43t-104.5 -43t-43.5 -104z" />
<glyph unicode="=" horiz-adv-x="770" d="M0 233q0 -43 33 -73.5t78 -30.5h444q47 0 80 30.5t33 73.5q0 45 -33 76t-80 31h-444q-45 0 -78 -30.5t-33 -76.5zM0 539q0 -43 33 -74t78 -31h444q47 0 80 31t33 74t-33 73.5t-80 30.5h-444q-45 0 -78 -30.5t-33 -73.5z" />
<glyph unicode="?" horiz-adv-x="1751" d="M0 786q0 -23 8 -45q35 -100 185 -100q47 0 94 14q88 27 159 86q80 64 248 68q205 -2 219 -94q-2 -25 -16 -43q-33 -45 -115 -64q-147 -47 -209 -174q-8 -18 -8 -41q0 -61 88 -76h250q113 0 158 86q27 37 65 66q88 68 217 84q274 33 306 176q-4 76 -60 133 q-131 135 -485 158q-76 4 -207 4q-344 0 -569 -41q-328 -59 -328 -197zM487 139q0 -57 86 -98t209 -41h60q121 0 208 41t87 98t-87 98.5t-208 41.5h-60q-123 0 -209 -41t-86 -99z" />
<glyph unicode="@" horiz-adv-x="1929" d="M0 514q14 -150 86 -258q174 -258 604 -258h447q27 0 73 4q63 66 60 84q-10 55 -82 53q-59 -8 -94 -8h-361q-348 0 -489 191q-57 80 -70 190q12 109 70 186q141 184 489 185h361q348 0 489 -185q57 -78 70 -186q0 -100 -54 -178q-12 -23 -40 -23q-43 0 -43 29v174 q-8 94 -56 162q-113 162 -391 162h-262q-281 0 -391 -162q-47 -68 -56 -162q8 -96 56 -166q111 -168 391 -168h262q98 0 215 39q92 -98 236 -98q90 0 149 37q158 98 158 356q-14 147 -86 252q-172 250 -604 250h-447q-430 0 -604 -250q-72 -104 -86 -252zM827 508 q14 195 197 194h20q182 0 195 -194q-13 -193 -195 -193h-20q-182 0 -197 193z" />
<glyph unicode="A" horiz-adv-x="1746" d="M0 317q0 -133 95 -227t229 -94h88q223 0 299 205q29 76 110 82h299q92 0 115 -115q14 -76 71.5 -124t131.5 -48q84 0 145.5 62.5t61.5 152.5v289q-16 150 -89 256q-174 256 -606 256h-258q-430 0 -604 -256q-72 -106 -88 -256v-183zM715 563q0 14 4 29q25 90 100 143 q68 47 156 47t155 -47q76 -53 99 -143q2 -14 2 -27q0 -69 -96 -73l-2 2q-14 -1 -94.5 -1t-225.5 1q-98 4 -98 69z" />
<glyph unicode="B" d="M0 317q0 -133 91 -227t220 -94h729q379 0 531 147q61 63 76 150q-1 131 -140 211q139 80 140 209q-14 88 -76 149q-152 150 -531 150h-739q-123 0 -212 -95.5t-89 -228.5v-371zM713 301q0 39 30.5 67.5t73.5 28.5h156q209 0 225 -96q-4 -29 -29 -49q-55 -49 -196 -49 h-154q-45 0 -75.5 28.5t-30.5 69.5zM713 705q0 41 30.5 69.5t75.5 28.5h154q209 0 225 -98q-16 -97 -225 -97h-154q-45 0 -75.5 29t-30.5 68z" />
<glyph unicode="C" d="M0 498q14 -141 86 -244q174 -246 604 -258q74 -2 148 -2q387 0 694 49q115 23 115 137q-27 80 -101 80q-17 0 -37 -6q-186 -49 -483 -49q-188 2 -264 153q-31 61 -37 150q6 86 39 147q76 147 266 150q26 1 51 1q232 0 428 -50q16 -4 33 -4q80 0 105 79q0 113 -115 136 q-317 51 -692 51q-74 0 -150 -2q-430 -12 -604 -266q-72 -104 -86 -252z" />
<glyph unicode="D" horiz-adv-x="1775" d="M0 317q0 -133 95 -227t229 -94h659q432 0 604 258q72 106 86 258q-14 145 -86 250q-172 252 -604 252h-659q-133 0 -228.5 -95.5t-95.5 -228.5v-373zM713 315v377q0 45 31.5 78t78.5 33h121q188 0 266 -150q31 -63 37 -151q-6 -86 -37 -148q-78 -149 -266 -149h-121 q-47 0 -78.5 32.5t-31.5 77.5z" />
<glyph unicode="E" horiz-adv-x="1658" d="M0 496q14 -145 86 -250q172 -250 604 -250h756q47 0 78.5 30.5t31.5 73.5t-31.5 74t-78.5 31h-485q-143 0 -222 84q-18 23 -18 47q0 61 100 61l625 2q45 0 77.5 32t32.5 75t-31.5 73.5t-78.5 30.5h-625q-100 0 -100 64q0 25 18 45q78 84 222 84h485q47 0 78.5 31.5 t31.5 74.5t-31.5 74t-78.5 31h-756q-432 0 -604 -258q-72 -109 -86 -260z" />
<glyph unicode="F" horiz-adv-x="1658" d="M0 496l2 -179q2 -133 96.5 -227t227.5 -94h65q131 0 225.5 94t96.5 227q2 76 108 82h623q47 0 79.5 31t32.5 74t-32.5 73.5t-79.5 30.5h-625q-98 0 -98 64q0 25 16 45q72 86 221 86h486q47 0 79.5 30.5t32.5 73.5t-32.5 74t-79.5 31h-754q-432 0 -604 -258 q-72 -106 -86 -258z" />
<glyph unicode="G" d="M0 498q14 -141 86 -244q174 -246 604 -258q74 -2 148 -2q387 0 694 49q115 23 115 137v258q0 78 -55.5 133.5t-133.5 55.5h-39q-78 0 -133 -55.5t-55 -133.5v-129q0 -86 -90 -104q-31 -1 -60 -1t-55 1q-188 2 -264 153q-31 61 -37 150q6 86 39 147q76 147 266 150 q26 1 51 1q232 0 428 -50q16 -4 33 -4q80 0 105 79q0 113 -115 136q-317 51 -692 51q-74 0 -150 -2q-430 -12 -604 -266q-72 -104 -86 -252z" />
<glyph unicode="H" horiz-adv-x="1753" d="M0 317q0 -133 95 -227t229 -94h65q84 4 150 35q154 72 174 252q0 49 30.5 80.5t75.5 31.5h309q45 0 77 -31.5t32 -74.5v-78q0 -90 60.5 -152.5t146.5 -62.5t146.5 62.5t60.5 152.5v584q0 90 -60.5 153.5t-146.5 63.5t-146.5 -63.5t-60.5 -153.5v-82q0 -45 -31.5 -76 t-77.5 -31h-307q-47 0 -77.5 32t-30.5 81q-31 272 -324 293h-65q-133 0 -228.5 -94.5t-95.5 -227.5v-373z" />
<glyph unicode="I" horiz-adv-x="815" d="M0 317q0 -133 95 -227t229 -94h65q133 0 228.5 94t95.5 227v373q0 133 -95.5 227.5t-228.5 94.5h-65q-133 0 -228.5 -94.5t-95.5 -227.5v-373z" />
<glyph unicode="J" d="M0 180q0 -109 115 -135q238 -55 612 -55q125 0 225 6h2q420 0 598 244q74 100 95 241v207q0 133 -95.5 228.5t-228.5 95.5h-610q-45 0 -78 -31t-33 -74t33 -73.5t78 -30.5h112q45 0 78 -33t33 -78v-190q-6 -86 -39 -150q-78 -147 -268 -147h-8q-299 0 -484 51 q-20 4 -39 4q-74 0 -98 -80z" />
<glyph unicode="K" horiz-adv-x="1761" d="M0 317q0 -133 95 -227t229 -94h65q133 0 226.5 94t97.5 227q0 78 106 84h121q78 -4 137 -28q143 -59 172 -205q14 -74 71.5 -123t131.5 -49q84 0 144.5 60.5t62.5 146.5v5q0 185 -275 316q207 135 207 277q-2 88 -62.5 150.5t-144.5 62.5q-51 -4 -88 -21 q-94 -39 -112 -139q-10 -55 -60 -123q-88 -121 -229 -121h-76q-31 2 -53 13q-51 20 -53 71q-4 90 -45 166q-82 152 -279 152h-65q-133 0 -228.5 -94.5t-95.5 -227.5v-373z" />
<glyph unicode="L" horiz-adv-x="1650" d="M0 512q16 -150 88 -256q176 -256 604 -256l744 -2q47 0 79.5 31.5t32.5 74.5t-32.5 74t-79.5 31h-404q-203 0 -282 149q-33 61 -41 148l4 188q0 133 -95.5 227.5t-228.5 94.5h-65q-133 0 -228.5 -94.5t-95.5 -227.5v-182z" />
<glyph unicode="M" horiz-adv-x="1939" d="M0 317q0 -133 95 -227t229 -94h65q109 0 203 70.5t113 164.5q10 47 34 48q25 0 54 -46l149 -170q55 -63 135 -63q57 0 99 37l186 272q16 25 33 25q16 0 28 -25v-98q0 -90 61.5 -152.5t145.5 -62.5q86 0 146.5 62.5t60.5 152.5v584q0 90 -60.5 153.5t-146.5 63.5 q-59 0 -112 -37q-43 -29 -70 -80l-295 -453q-20 -33 -51 -32q-33 0 -66 34l-424 478q-80 90 -223 90h-65q-133 0 -228.5 -94.5t-95.5 -227.5v-373z" />
<glyph unicode="N" horiz-adv-x="1716" d="M0 317q0 -133 95 -227t229 -94h65q133 0 228.5 94t95.5 227v123q0 31 22 31q27 0 76 -37l487 -407q51 -31 109 -31q86 0 146.5 62.5t60.5 152.5v584q0 90 -60.5 153.5t-146.5 63.5t-146.5 -63.5t-60.5 -153.5v-277q-2 -35 -31 -35q-25 0 -65 33l-514 432q-18 14 -74 37 q-72 27 -127 27h-65q-133 0 -228.5 -94.5t-95.5 -227.5v-373z" />
<glyph unicode="O" horiz-adv-x="1929" d="M0 518q14 -152 86 -260q172 -258 604 -258h447q432 0 604 258q72 109 86 260q-14 145 -86 250q-172 250 -604 250h-447q-432 0 -604 -250q-72 -104 -86 -250zM725 508q6 88 39 151q76 150 266 150h66q190 0 266 -150q33 -63 39 -151q-6 -86 -39 -150q-76 -147 -266 -147 h-66q-190 0 -266 147q-33 63 -39 150z" />
<glyph unicode="P" d="M0 324q0 -133 95 -228.5t229 -95.5h88q223 0 299 207q29 74 110 82l223 4q162 2 318 53q285 98 285 318q-14 102 -76 176q-152 178 -531 178h-716q-133 0 -228.5 -95.5t-95.5 -228.5v-370zM713 612v84q0 47 31.5 80t78.5 33h150q209 0 225 -156q-16 -151 -225 -151h-150 q-47 0 -78.5 32.5t-31.5 77.5z" />
<glyph unicode="Q" horiz-adv-x="1929" d="M0 518q14 -152 86 -260q174 -258 604 -258h447q109 0 254 37q31 -33 96 -35h199q90 0 90 43q0 20 -23 41l-84 84q158 133 158 348q-14 145 -86 250q-172 250 -604 250h-447q-430 0 -604 -250q-72 -104 -86 -250zM725 508q6 88 39 151q76 150 266 150h66q145 0 229 -94 q75 -84 75 -206q0 -15 -1 -30q-4 -76 -70 -76h-153q-88 0 -89 -45q0 -20 23 -43l49 -49q12 -12 12 -22q0 -27 -36 -31q-25 -2 -39 -2h-66q-190 0 -266 147q-33 63 -39 150z" />
<glyph unicode="R" d="M0 324q0 -133 95 -228.5t229 -95.5h88q223 0 299 207q29 74 110 82h99q23 -4 45 -8q49 -14 75 -48l72 -86q51 -61 146.5 -103t181.5 -42q151 0 151 69q0 19 -14 44l-174 184q-16 14 -17 31q0 27 35 41q225 98 226 293q-14 102 -76 176q-152 178 -531 178h-716 q-133 0 -228.5 -95.5t-95.5 -228.5v-370zM713 612v84q0 47 31.5 80t78.5 33h150q209 0 225 -156q-16 -151 -222 -151h-3h-150q-47 0 -78.5 32.5t-31.5 77.5z" />
<glyph unicode="S" horiz-adv-x="1777" d="M0 705q12 84 68 147q137 150 477 168q133 6 266 6q397 0 717 -55q117 -23 117 -135q-27 -80 -105 -80q-16 0 -33 4q-199 50 -472 50q-30 0 -60 -1q-209 -4 -225 -94q16 -98 225 -99h155q340 0 476 -149q57 -61 69 -150q-12 -86 -69 -149q-135 -154 -476 -166 q-109 -2 -212 -2q-471 0 -789 68q-115 20 -115 135q27 82 109 82q14 0 29 -2q392 -71 758 -71q46 0 91 1q209 4 226 96q-16 96 -226 97h-456q-340 0 -477 149q-55 63 -68 150z" />
<glyph unicode="T" horiz-adv-x="1740" d="M0 911q0 -43 33 -73.5t78 -30.5h241q45 0 78 -33t33 -78v-372q0 -133 95 -228.5t228 -95.5h66q133 0 228.5 95t95.5 229v372q0 45 32.5 78t77.5 33h240q47 0 79.5 30.5t32.5 73.5t-32.5 74t-79.5 31h-1415q-45 0 -78 -31t-33 -74z" />
<glyph unicode="U" horiz-adv-x="1746" d="M0 512q0 -231 190 -367q227 -145 502 -145h258q430 0 606 258q72 106 89 254v291q0 88 -60.5 150.5t-146.5 64.5h-3q-190 0 -204 -217v-379q0 -88 -76 -141q-68 -47 -166 -48q-127 0 -202.5 74t-75.5 201l2 186q0 133 -95.5 228.5t-228.5 95.5h-65q-133 0 -228.5 -95.5 t-95.5 -228.5v-182z" />
<glyph unicode="V" horiz-adv-x="1832" d="M0 698q18 -203 109 -350q219 -348 763 -348q252 14 431 88q428 176 428 617v8l-2 108q0 82 -65 139.5t-146 59.5q-193 0 -207 -207l-2 -102q-2 -295 -164 -412q-68 -49 -160 -59q-82 8 -139 55q-135 113 -135 389v8v6q0 141 -101 232q-94 88 -225 88h-47 q-102 -6 -174 -39q-165 -76 -165 -260q0 -10 1 -21z" />
<glyph unicode="W" horiz-adv-x="1939" d="M0 324q0 -133 95 -228.5t229 -95.5h65q92 0 223 90l424 297q31 25 64 25q29 0 53 -23l293 -285q94 -90 184 -102q86 0 146.5 63.5t60.5 151.5v586q0 88 -60.5 151.5t-146.5 63.5q-84 0 -145.5 -63.5t-61.5 -151.5v-289q-8 -20 -24 -20t-37 20l-166 162q-41 41 -121 41 q-78 0 -133 -41l-149 -113q-36 -26 -58 -26h-2q-31 0 -31 43l3 202q0 90 -101.5 163t-214.5 73h-65q-133 0 -228.5 -95.5t-95.5 -228.5v-370z" />
<glyph unicode="X" horiz-adv-x="1808" d="M0 227v-12q0 -199 260 -215h158q104 0 188 64.5t121 164.5q51 147 256 177h45q219 -31 266 -209q8 -82 66.5 -138.5t138.5 -56.5q87 0 149 64q59 60 58 141v10q-6 164 -209 279q-29 14 0 28q59 33 102 74q102 94 107 205v10q0 81 -58 141q-62 64 -149 64 q-80 0 -138 -56.5t-67 -138.5q-47 -178 -266 -209h-45q-205 29 -256 177q-37 100 -121 164.5t-188 64.5h-158q-260 -16 -260 -215v-12q4 -141 209 -263q31 -18 0 -43q-205 -119 -209 -260z" />
<glyph unicode="Y" horiz-adv-x="1796" d="M0 743q0 -23 2 -47q35 -279 449 -377q35 -12 41 -51q20 -115 110 -191.5t209 -76.5h63q119 0 209.5 77t110.5 191q6 43 45 51q449 111 455 482q2 199 -207 215q-86 0 -147 -64q-60 -61 -60 -145v-6v-7q0 -248 -289 -294q-242 27 -282 223q-12 123 -104.5 208t-217.5 85 h-65q-94 -6 -160 -35q-162 -68 -162 -238z" />
<glyph unicode="Z" horiz-adv-x="1724" d="M0 911q0 -43 33 -73.5t78 -30.5h467q65 0 65 -42q0 -24 -27 -42l-514 -399q-94 -74 -94 -174q0 -63 43 -106.5t119 -43.5h1341q45 0 78 30.5t33 73.5t-33 75t-78 32h-464q-61 0 -62 41q0 23 23 43l512 397q96 76 96 176q0 63 -44 105.5t-120 42.5h-1341q-45 0 -78 -31 t-33 -74z" />
<glyph unicode="[" horiz-adv-x="856" d="M0 297q0 -133 95 -228.5t229 -95.5h319q45 0 78 31t33 74t-33 73.5t-78 30.5h-113q-45 0 -77.5 33t-32.5 80v418q0 47 32.5 79.5t77.5 32.5h113q45 0 78 31t33 74t-33 73.5t-78 30.5h-319q-133 0 -228.5 -95t-95.5 -228v-414z" />
<glyph unicode="\" horiz-adv-x="806" d="M0 901q0 82 68 119q29 16 63 16q84 0 127 -75l426 -781q20 -35 21 -74q0 -82 -68 -118q-31 -16 -66 -17q-84 0 -125 76l-428 780q-18 35 -18 74z" />
<glyph unicode="]" horiz-adv-x="856" d="M0 78q0 43 33 73.5t78 30.5h112q45 0 78 33t33 80v418q0 47 -33 79.5t-78 32.5h-112q-45 0 -78 31t-33 74t33 73.5t78 30.5h319q133 0 228.5 -95t95.5 -228v-414q0 -133 -95.5 -228.5t-228.5 -95.5h-319q-45 0 -78 31t-33 74z" />
<glyph unicode="a" horiz-adv-x="1257" d="M0 338q10 -98 55 -168q113 -166 391 -166h263q98 0 215 37q43 -39 98 -39t94 41t39 98v197q-8 94 -55 162q-111 162 -391 162h-263q-279 0 -391 -162q-45 -68 -55 -162zM469 332q14 194 195 194h2h18q182 0 197 -194q-15 -193 -197 -193h-18q-182 0 -197 193z" />
<glyph unicode="b" horiz-adv-x="1257" d="M0 326q10 -94 55 -162q113 -162 391 -162h263q281 0 391 162q47 68 55 162q-8 96 -55 166q-110 167 -388 167h-3q-117 0 -209 -26q-12 -4 -25.5 4t-15.5 27q-2 188 -209 202h-41q-86 0 -147.5 -61.5t-61.5 -147.5v-331zM469 332q14 192 195 192h2h18h2q181 0 195 -192 q-14 -195 -197 -195h-18q-182 0 -197 195z" />
<glyph unicode="c" horiz-adv-x="1165" d="M0 330q10 -92 55 -158q113 -160 391 -168q51 -1 100 -1q240 0 443 32q74 14 74 88q-41 53 -64 53q-12 0 -24 -4q-119 -33 -311 -33q-182 2 -195 197q4 55 25 94q49 96 172 98h19q159 0 290 -32q12 -2 22 -2q53 0 66 51q0 72 -74 86q-204 34 -447 34q-47 0 -96 -1 q-279 -8 -391 -172q-45 -68 -55 -162z" />
<glyph unicode="d" horiz-adv-x="1257" d="M0 324q10 -94 55 -162q113 -162 391 -162h263q182 0 297 74q133 82 149 248v405q0 57 -39 98t-94 41t-94 -41t-39 -98v-39q0 -46 -42 -46q-5 0 -11 1q-76 14 -127 14h-263q-279 0 -391 -165q-45 -70 -55 -168zM469 330q14 192 195 192h2h18h2q181 0 195 -192 q-14 -195 -197 -195h-18q-182 0 -197 195z" />
<glyph unicode="e" horiz-adv-x="1234" d="M0 330q10 -92 55 -160q113 -158 391 -166q47 -1 93 -1q224 0 426 32q74 14 73 88q-41 51 -63 51q-12 0 -25 -2q-119 -33 -286 -33q-80 0 -144 60q-8 6 -2 16q6 12 25 12h497q25 2 43 15q45 29 50 104q-10 94 -56 160q-113 162 -389 162q-45 0 -121 -2q-86 -2 -121 -2 q-279 -4 -391 -170q-45 -68 -55 -164zM477 399q49 127 189 127h32q119 -23 150 -123q3 -9 3 -16q0 -25 -34 -25h-309q-16 0 -24.5 13.5t-6.5 23.5z" />
<glyph unicode="f" horiz-adv-x="901" d="M0 514q0 -27 21.5 -47.5t50.5 -20.5h37q41 0 49 -36v-199q0 -86 61.5 -147.5t147.5 -61.5h43q86 0 146 61.5t60 147.5l2 192q10 43 50 43h59q29 0 50.5 20.5t21.5 47.5q0 29 -21.5 48.5t-50.5 19.5h-61q-14 2 -25 8q-23 12 -25 47q5 98 66 98q9 0 18 -2q29 0 50.5 18.5 t21.5 47.5t-21.5 49t-50.5 20h-239q-238 0 -301 -233q-10 -49 -49 -53h-39q-29 0 -50.5 -19.5t-21.5 -48.5z" />
<glyph unicode="g" horiz-adv-x="1163" d="M0 336q10 -98 55 -168q113 -166 391 -166h168l123 10q25 -6 25 -26q0 -23 -27 -56q-58 -69 -146 -69h-3q-92 0 -123 43q-59 80 -174 80q-106 0 -131 -72q-6 -16 -6 -33q0 -125 307 -164q31 -4 73 -4q193 0 332 62q197 86 197 266v299q-10 94 -57 162q-112 159 -387 159 h-3h-168q-279 0 -391 -161q-45 -68 -55 -162zM469 330q0 92 57 145q45 43 101 43q57 0 102 -43q57 -51 57 -145t-59 -148q-45 -41 -100 -41q-53 0 -101 41q-57 53 -57 148z" />
<glyph unicode="h" horiz-adv-x="1146" d="M0 211q0 -86 61.5 -147.5t147.5 -61.5h41q88 0 148.5 61.5t60.5 147.5v82q8 74 86 138.5t147 64.5q86 0 86 -109v-244q10 -141 130 -141h3q55 2 94 42t39 97v189q0 141 -97.5 234t-244.5 93q-104 0 -196 -51q-14 -8 -25 -8q-23 0 -22 29v30q0 86 -60.5 147.5t-148.5 61.5 h-41q-86 0 -147.5 -61.5t-61.5 -147.5v-446z" />
<glyph unicode="i" horiz-adv-x="561" d="M0 211q0 -86 61.5 -147.5t147.5 -61.5h41q88 0 148.5 61.5t60.5 147.5v141q0 86 -60.5 147.5t-148.5 61.5h-41q-86 0 -147.5 -61.5t-61.5 -147.5v-141zM20 731q0 -55 56.5 -95t134.5 -40h39q88 0 141 43q47 39 47 92q0 55 -47 94q-53 41 -141 41h-39q-78 0 -134.5 -39 t-56.5 -96zM440 733z" />
<glyph unicode="j" horiz-adv-x="811" d="M-205 -121q0 -74 117 -121q111 -45 270 -45q209 0 355 78q168 92 170 262l2 314h-2q-4 80 -64.5 137t-142.5 57h-43q-86 0 -146.5 -61.5t-60.5 -147.5v-383q0 -43 -25.5 -68.5t-58.5 -25.5q-35 0 -60 29q-70 80 -174 80q-53 0 -92 -25q-45 -29 -45 -80zM270 731 q0 -55 56.5 -95t134.5 -40h39q78 0 134 40t56 95q0 57 -56 96t-134 39h-39q-78 0 -134.5 -39t-56.5 -96z" />
<glyph unicode="k" horiz-adv-x="1173" d="M0 211q0 -86 61.5 -147.5t147.5 -61.5h41q86 0 147.5 61.5t61.5 147.5q2 49 69 53h80q49 -4 88 -18q92 -37 111 -131q10 -49 47 -81t84 -32q53 0 93 39t40 97q0 121 -176 204q133 88 133 180q-2 57 -41 97t-92 40q-33 -2 -57 -12q-61 -27 -72 -90q-8 -37 -39 -80 q-57 -78 -149 -78h-50q-70 4 -69 54v209q0 53 -27 106q-53 98 -182 98h-41q-86 0 -147.5 -61.5t-61.5 -147.5v-446z" />
<glyph unicode="l" horiz-adv-x="716" d="M0 332q6 -96 41 -166q82 -166 285 -166h215q31 0 52 20.5t21 47.5q0 29 -21.5 48t-51.5 19q-82 0 -82 94v428q0 86 -61.5 147.5t-147.5 61.5h-41q-86 0 -147.5 -61.5t-61.5 -147.5v-325z" />
<glyph unicode="m" horiz-adv-x="1435" d="M0 211v117q8 96 51 166q103 165 360 165h3h51q164 0 297 -88q27 25 59 43q78 43 170 43h6q143 0 239 -91q98 -93 97 -236v-189q0 -57 -39 -97t-94 -42h-3q-122 0 -130 141v244q0 109 -86 109q-84 0 -86 -109v-246q-2 -57 -41 -97t-94 -42h-3q-120 0 -130 141v244 q0 45 -23.5 77t-62.5 32q-82 0 -82 -107v-178q0 -86 -60.5 -147.5t-148.5 -61.5h-41q-86 0 -147.5 61.5t-61.5 147.5z" />
<glyph unicode="n" horiz-adv-x="1165" d="M0 211v117q0 150 123 237q147 94 326 94h165q279 0 392 -165q47 -70 57 -166v-187q0 -57 -40 -98t-95 -41h-3q-120 0 -130 139v246q0 55 -46.5 88t-109.5 33q-82 0 -131 -47t-49 -129v-121q0 -86 -60.5 -147.5t-148.5 -61.5h-41q-86 0 -147.5 61.5t-61.5 147.5z" />
<glyph unicode="o" horiz-adv-x="1257" d="M0 334q10 -96 55 -166q113 -168 391 -168h263q281 0 391 168q47 70 55 166q-8 94 -55 162q-110 161 -391 161h-263q-279 0 -391 -161q-45 -68 -55 -162zM469 328q14 194 195 194h2h18q182 0 197 -194q-15 -193 -197 -193h-18q-182 0 -197 193z" />
<glyph unicode="p" horiz-adv-x="1257" d="M0 -80q0 -86 61.5 -147.5t147.5 -61.5h41q88 0 148.5 61.5t60.5 147.5v33q4 49 49 49h201q281 0 391 168q47 68 55 166q-8 94 -55 162q-110 161 -391 161h-263q-279 0 -391 -161q-45 -68 -55 -162v-416zM469 330q14 194 195 194h2h18q182 0 197 -194q-15 -193 -197 -193 h-18q-182 0 -197 193z" />
<glyph unicode="q" horiz-adv-x="1257" d="M0 334q10 -96 55 -166q113 -168 391 -168h263q51 0 127 14q6 1 12 1q41 0 41 -38v-124q0 -57 39 -98.5t94 -41.5t94 41t39 99v483v2q-10 94 -57 160q-112 159 -386 159h-3h-263q-279 0 -391 -161q-45 -68 -55 -162zM469 328q14 194 195 194h2h18q182 0 197 -194 q-15 -193 -197 -193h-18q-182 0 -197 193z" />
<glyph unicode="r" horiz-adv-x="1095" d="M0 211q0 -86 61.5 -147.5t147.5 -61.5h41q88 0 148.5 61.5t60.5 147.5v82q8 78 60 139.5t118 61.5q68 0 100 -62q45 -82 144 -88q49 0 80.5 31t31.5 80q0 88 -93 146q-87 54 -214 54h-18q-123 -4 -213 -80q-27 -12 -47 15q-61 74 -158 74h-41q-86 0 -147.5 -59.5 t-61.5 -145.5v-248z" />
<glyph unicode="s" horiz-adv-x="1183" d="M0 455q8 55 45 94q88 98 307 108q86 6 172 7q256 0 463 -37q74 -14 74 -88q-39 -49 -66 -50q-10 0 -22 3q-123 31 -293 31q-24 0 -49 -1q-135 -2 -146 -61q10 -63 146 -64h98q328 0 352 -192q-6 -55 -43 -96q-88 -98 -309 -107q-70 -2 -137 -2q-303 0 -508 43 q-76 14 -76 88q42 51 84 51h6q257 -46 494 -46q28 0 55 1q135 4 146 62q-10 63 -146 63h-295q-328 0 -352 193z" />
<glyph unicode="t" horiz-adv-x="905" d="M0 516q0 -29 21.5 -48t50.5 -19h37q51 -4 51 -50v-71q8 -94 41 -162q82 -162 286 -164l215 -2q29 0 50.5 21.5t21.5 48.5q0 29 -21.5 48t-50.5 19q-9 -2 -17 -2q-62 0 -67 98v166q6 45 48 50h63q31 0 52.5 19t21.5 48t-21.5 48.5t-52.5 19.5h-61q-49 4 -50 47v28 q0 86 -60 147.5t-146 61.5h-43q-86 0 -147.5 -61.5t-61.5 -147.5v-28q0 -43 -47 -47h-41q-29 0 -50.5 -19.5t-21.5 -48.5z" />
<glyph unicode="u" horiz-adv-x="1165" d="M0 332q0 -150 123 -236q147 -94 326 -94h165q279 0 392 166q47 68 57 164v188q0 57 -40 97t-95 42h-3q-120 0 -130 -141v-244q0 -57 -46.5 -89.5t-109.5 -32.5q-82 0 -131 48t-49 130v121q0 86 -60.5 147t-148.5 61h-41q-86 0 -147.5 -61t-61.5 -147v-119z" />
<glyph unicode="v" horiz-adv-x="1208" d="M0 451q12 -131 70 -224q139 -225 489 -225q160 10 275 57q274 115 272 400v71q0 51 -40 89q-38 36 -88 36h-5q-123 0 -133 -123v-73q-2 -281 -209 -303q-174 20 -174 284v6q0 92 -66 154q-61 55 -143 55h-31q-217 -14 -217 -191v-13z" />
<glyph unicode="w" horiz-adv-x="1435" d="M0 332q8 -96 51 -164q104 -166 363 -166h51q164 0 297 86q27 -25 59 -41q78 -43 170 -45q147 0 244.5 93t97.5 237v186q0 57 -39 98t-94 41h-3q-122 0 -130 -139v-246q0 -106 -86 -106q-84 0 -86 106v246q-2 57 -41 98t-94 41h-3q-120 0 -130 -139v-246 q0 -43 -23.5 -75.5t-62.5 -32.5q-82 0 -82 106v181q0 86 -60.5 147t-148.5 61h-41q-86 0 -147.5 -61t-61.5 -147v-119z" />
<glyph unicode="x" horiz-adv-x="1204" d="M0 147v-6q0 -129 168 -141h100q70 0 124 42t77 108q33 94 166 112h29q143 -18 172 -133q6 -53 44 -90t89 -37q55 0 95 41q38 39 38 93v5q-4 107 -135 181q-18 8 0 18q39 20 65 47q68 61 70 131v5q0 54 -38 93q-40 41 -95 41q-51 0 -89 -35.5t-44 -89.5 q-29 -115 -172 -135h-29q-133 18 -166 113q-23 66 -77 107.5t-124 41.5h-100q-168 -10 -168 -141v-6q4 -90 135 -168q20 -12 0 -29q-131 -78 -135 -168z" />
<glyph unicode="y" horiz-adv-x="1165" d="M0 332q0 -150 123 -238q147 -94 326 -94h165q25 0 84 6q14 4 27 4q37 0 37 -26q0 -23 -29 -56q-56 -69 -144 -69h-3q-92 0 -123 43q-59 80 -174 80q-51 0 -90 -25q-47 -27 -47 -76q0 -76 137 -127q106 -41 170 -41q31 -4 73 -4q190 0 332 62q197 86 197 266l2 481 q0 57 -40 98t-95 41h-3q-120 0 -130 -139v-246q0 -57 -46.5 -88.5t-109.5 -31.5q-82 0 -131 47t-49 129v121q0 86 -60.5 147t-148.5 61h-41q-86 0 -147.5 -61t-61.5 -147v-117z" />
<glyph unicode="z" horiz-adv-x="1150" d="M0 590q0 -29 21.5 -48.5t50.5 -19.5h301q43 0 43 -28q0 -14 -19 -27l-331 -258q-61 -47 -62 -111q0 -98 105 -98h866q31 0 52.5 20.5t21.5 47.5q0 29 -21.5 48t-52.5 19h-299q-39 0 -39 29q0 14 14 26l330 259q63 49 63 112q0 96 -106 96h-866q-29 0 -50.5 -20.5 t-21.5 -46.5z" />
<glyph unicode="~" horiz-adv-x="743" d="M0 426q-2 29 27 59q25 20 49 41q74 57 162 58q39 0 79 -13q78 -41 152 -41q51 0 88 19q10 2 21 2q55 0 63 -55q4 -31 -27 -60q-24 -21 -49 -41q-72 -57 -162 -57q-37 0 -77 10q-80 43 -154 43q-51 0 -88 -18q-10 -2 -21 -2q-55 0 -63 55z" />
<glyph unicode="&#xad;" horiz-adv-x="765" d="M0 387q0 -51 39 -88t94 -37h397q55 0 94.5 37t39.5 88q0 53 -39 90t-95 37h-397q-55 0 -94 -37t-39 -90z" />
<glyph unicode="&#x2000;" horiz-adv-x="682" />
<glyph unicode="&#x2001;" horiz-adv-x="1365" />
<glyph unicode="&#x2002;" horiz-adv-x="682" />
<glyph unicode="&#x2003;" horiz-adv-x="1365" />
<glyph unicode="&#x2004;" horiz-adv-x="455" />
<glyph unicode="&#x2005;" horiz-adv-x="341" />
<glyph unicode="&#x2006;" horiz-adv-x="227" />
<glyph unicode="&#x2007;" horiz-adv-x="227" />
<glyph unicode="&#x2008;" horiz-adv-x="170" />
<glyph unicode="&#x2009;" horiz-adv-x="273" />
<glyph unicode="&#x200a;" horiz-adv-x="75" />
<glyph unicode="&#x2010;" horiz-adv-x="765" d="M0 387q0 -51 39 -88t94 -37h397q55 0 94.5 37t39.5 88q0 53 -39 90t-95 37h-397q-55 0 -94 -37t-39 -90z" />
<glyph unicode="&#x2011;" horiz-adv-x="765" d="M0 387q0 -51 39 -88t94 -37h397q55 0 94.5 37t39.5 88q0 53 -39 90t-95 37h-397q-55 0 -94 -37t-39 -90z" />
<glyph unicode="&#x2012;" horiz-adv-x="765" d="M0 387q0 -51 39 -88t94 -37h397q55 0 94.5 37t39.5 88q0 53 -39 90t-95 37h-397q-55 0 -94 -37t-39 -90z" />
<glyph unicode="&#x2013;" horiz-adv-x="1125" d="M0 387q0 -51 60 -88t145 -37h612q85 0 146 37t61 88q0 53 -60 90t-147 37h-612q-85 0 -145 -37t-60 -90z" />
<glyph unicode="&#x2014;" horiz-adv-x="2149" d="M0 387q0 -51 120.5 -88t289.5 -37h1225q169 0 291 37t122 88q0 53 -120.5 90t-292.5 37h-1225q-169 0 -289.5 -37t-120.5 -90z" />
<glyph unicode="&#x202f;" horiz-adv-x="273" />
<glyph unicode="&#x205f;" horiz-adv-x="341" />
<glyph unicode="&#xe000;" horiz-adv-x="655" d="M0 0v655h655v-655h-655z" />
</font>
</defs>
</svg>
