<?xml version="1.0" standalone="no"?>
<!DOCTYPE svg PUBLIC "-//W3C//DTD SVG 20010904//EN"
 "http://www.w3.org/TR/2001/REC-SVG-20010904/DTD/svg10.dtd">
<svg version="1.0" xmlns="http://www.w3.org/2000/svg"
 width="1000.000000pt" height="1000.000000pt" viewBox="0 0 1000.000000 1000.000000"
 preserveAspectRatio="xMidYMid meet">
<metadata>
Created by potrace 1.11, written by Peter Selinger 2001-2013
</metadata>
<g transform="translate(0.000000,1000.000000) scale(0.100000,-0.100000)"
fill="#000000" stroke="none">
<path d="M0 5000 l0 -5000 5000 0 5000 0 0 5000 0 5000 -5000 0 -5000 0 0
-5000z m5931 4232 c728 -486 1348 -908 1375 -936 1 0 50 -435 108 -966 105
-947 150 -1357 202 -1815 14 -126 31 -281 38 -343 l13 -113 -31 -13 c-83 -36
-990 -469 -1003 -480 -1 0 5 -26 13 -56 18 -72 18 -237 -1 -339 -46 -238 -155
-439 -342 -628 -240 -242 -493 -373 -781 -403 -136 -14 -137 -14 -167 86 -14
46 -28 90 -31 98 -4 10 15 14 79 19 161 13 288 66 383 161 69 69 113 153 145
273 35 131 38 393 6 437 -11 15 -24 11 -127 -38 -63 -30 -116 -53 -118 -52 -1
2 1 29 4 62 7 54 12 63 79 139 129 146 185 219 195 255 15 54 12 203 -6 283
-21 95 -64 184 -117 242 l-42 47 -120 -31 c-65 -18 -174 -52 -242 -77 l-123
-45 -68 21 c-183 54 -326 54 -637 -1 l-120 -21 -173 30 c-149 25 -178 28 -200
17 -15 -7 -44 -15 -65 -18 -49 -6 -59 -16 -91 -87 -39 -86 -57 -187 -54 -293
l3 -91 142 -100 c118 -82 140 -102 133 -116 -15 -28 -20 -134 -7 -142 9 -6 9
-8 -1 -8 -16 0 34 -43 62 -54 10 -3 17 -9 14 -11 -2 -3 -51 16 -108 41 -75 33
-106 42 -114 34 -7 -7 -11 -69 -10 -183 0 -157 3 -180 27 -260 38 -125 71
-182 141 -253 95 -95 195 -138 362 -157 l102 -12 -29 -94 c-16 -52 -32 -97
-35 -100 -11 -11 -169 -2 -242 14 -244 51 -453 169 -661 373 -104 103 -191
217 -248 327 -104 201 -148 458 -107 624 12 48 14 66 5 69 -6 2 -58 26 -114
54 -131 64 -892 426 -935 445 -30 12 -32 17 -27 46 3 18 23 196 45 397 214
1942 311 2805 317 2811 42 37 583 406 1367 931 659 441 958 635 972 633 12 -2
446 -287 965 -633z m-916 -4402 c-11 -5 -30 -9 -42 -9 -12 -1 -24 -5 -27 -9
-3 -5 17 -5 45 -2 27 4 49 5 49 4 0 -1 -24 -16 -54 -33 -30 -16 -57 -34 -60
-39 -7 -11 147 68 155 80 7 11 130 -15 197 -41 78 -31 123 -63 186 -132 121
-135 150 -242 143 -529 -8 -285 -35 -385 -141 -527 -78 -104 -189 -179 -322
-219 -79 -24 -254 -24 -343 0 -216 58 -363 224 -405 456 -42 228 -40 531 4
672 48 155 192 277 379 323 62 15 269 19 236 5z m-705 -732 c0 -5 -9 -4 -20 2
-11 6 -18 15 -14 21 6 11 34 -7 34 -23z m742 -1225 c204 -274 249 -421 176
-571 -28 -59 -96 -128 -151 -152 -129 -59 -283 13 -354 165 -23 50 -27 74 -28
145 0 78 3 92 37 162 20 42 55 104 78 138 48 71 157 200 169 200 4 0 37 -39
73 -87z m1078 -433 c28 -28 25 -54 -15 -115 -53 -79 -63 -84 -70 -38 -10 58
-13 63 -44 76 l-30 13 34 18 c19 10 44 29 56 42 27 29 43 30 69 4z m-492
-1229 c-5 -122 -20 -161 -62 -161 -29 0 -91 67 -136 146 -16 29 -30 55 -30 56
0 2 31 3 69 3 63 0 73 3 108 32 21 18 42 32 47 32 5 1 7 -48 4 -108z m-1137
43 c38 3 69 3 69 0 0 -13 -89 -131 -130 -172 -51 -51 -81 -53 -91 -7 -4 17 -7
74 -8 128 l-1 98 46 -27 c41 -24 51 -26 115 -20z"/>
<path d="M5430 9151 l0 -59 49 -36 c77 -57 157 -149 175 -203 10 -27 22 -108
27 -183 17 -231 58 -1690 49 -1758 -11 -86 -30 -112 -81 -112 -22 0 -66 11
-99 25 -33 14 -62 25 -65 25 -3 0 -5 -33 -3 -72 l3 -73 445 -257 c245 -141
457 -264 473 -273 l27 -16 0 69 0 70 -82 66 c-138 109 -170 176 -188 394 -19
228 -82 1594 -78 1705 4 151 21 161 151 98 l58 -28 -3 60 -3 60 -410 269
c-225 148 -418 274 -427 279 -16 9 -18 4 -18 -50z"/>
<path d="M3655 8674 l-420 -265 -7 -57 c-3 -31 -4 -59 -2 -61 3 -3 29 7 60 22
30 15 67 27 83 27 51 0 56 -18 54 -179 -1 -190 -109 -1678 -128 -1777 -27
-142 -85 -227 -211 -311 l-51 -34 -7 -71 c-3 -39 -4 -73 -2 -75 7 -7 830 463
942 538 529 354 821 851 801 1364 -10 261 -90 384 -260 402 -129 13 -324 -67
-586 -241 l-143 -96 6 83 c3 45 11 172 17 282 20 361 43 422 210 545 l69 52 0
59 c0 32 -1 59 -2 59 -2 0 -192 -120 -423 -266z m555 -836 c70 -47 100 -155
100 -354 0 -197 -35 -380 -105 -545 -113 -269 -368 -486 -446 -379 -40 55 -42
137 -14 652 15 265 30 485 34 488 164 118 250 158 342 159 42 1 64 -4 89 -21z"/>
<path d="M4279 5738 c-1 -117 -2 -230 -3 -252 l-1 -38 58 -2 c62 -1 80 17 27
29 l-30 7 0 218 0 218 30 7 c49 11 34 25 -25 25 l-55 0 -1 -212z"/>
<path d="M5158 5943 c-32 -5 -37 -28 -8 -36 19 -5 20 -14 20 -130 0 -148 -6
-188 -32 -194 -42 -12 -13 -23 57 -23 41 0 75 4 75 9 0 5 -10 11 -22 13 -21 3
-23 9 -26 85 l-3 82 30 16 c39 20 78 6 87 -31 4 -14 4 -60 0 -100 l-6 -74 50
0 c50 0 67 13 30 23 -18 5 -20 14 -20 92 0 47 -5 95 -10 105 -6 11 -28 25 -49
31 -35 10 -44 9 -75 -9 l-36 -21 0 84 c0 92 4 88 -62 78z"/>
<path d="M5450 5942 c0 -4 14 -13 30 -19 l30 -11 0 -204 c0 -111 -4 -208 -8
-214 -4 -6 -17 -14 -29 -18 -44 -14 -25 -31 32 -31 l55 0 0 253 0 252 -55 0
c-30 0 -55 -4 -55 -8z"/>
<path d="M4710 5900 c0 -28 3 -31 28 -28 21 2 27 8 27 28 0 20 -6 26 -27 28
-25 3 -28 0 -28 -28z"/>
<path d="M4492 5800 c-119 -54 -82 -250 47 -250 36 0 95 22 106 40 11 18 3 19
-41 8 -54 -15 -90 -4 -109 32 -24 46 -20 50 48 50 91 0 107 7 107 42 0 40 -15
65 -50 83 -38 20 -56 19 -108 -5z m81 -22 c9 -7 19 -25 23 -40 l6 -28 -61 0
c-54 0 -61 2 -61 20 0 25 34 60 58 60 10 0 26 -6 35 -12z"/>
<path d="M4713 5807 c-44 -11 -60 -37 -23 -37 19 0 20 -7 20 -91 0 -82 -2 -91
-20 -96 -43 -11 -17 -23 50 -23 67 0 93 12 50 23 -22 6 -25 31 -22 165 2 39
-1 71 -5 71 -4 -1 -27 -7 -50 -12z"/>
<path d="M4914 5806 c-64 -28 -87 -108 -40 -143 l23 -18 -20 -27 c-17 -23 -18
-30 -7 -43 11 -13 10 -18 -8 -31 -22 -15 -29 -55 -16 -89 17 -42 126 -59 189
-29 54 25 82 84 64 132 -14 38 -25 42 -107 42 -64 0 -73 2 -70 17 2 11 16 20
38 23 68 12 100 42 100 94 0 21 5 26 25 26 14 0 25 2 25 4 0 2 3 12 6 21 6 14
1 16 -32 15 -21 -2 -52 2 -67 9 -36 14 -64 13 -103 -3z m80 -38 c22 -31 20
-64 -4 -88 -26 -26 -36 -25 -66 5 -26 26 -27 62 -3 91 17 21 56 17 73 -8z m54
-255 c4 -43 -29 -73 -82 -73 -47 0 -76 23 -76 60 0 42 18 51 90 48 65 -3 65
-3 68 -35z"/>
<path d="M6255 5198 c-11 -6 -30 -20 -42 -31 -13 -11 -23 -16 -23 -11 0 5 -7
0 -15 -10 -8 -11 -15 -16 -15 -12 0 4 -7 1 -15 -7 -8 -9 -20 -17 -27 -19 -9
-3 -6 -19 10 -56 12 -28 25 -73 29 -99 10 -82 17 -80 66 26 93 196 102 258 32
219z"/>
<path d="M3629 5055 c-64 -14 -128 -29 -143 -35 l-27 -10 22 -42 c30 -61 76
-114 166 -196 l79 -71 0 107 c0 93 4 116 27 173 29 69 33 94 17 84 -5 -3 -10
-1 -10 4 0 14 8 14 -131 -14z"/>
<path d="M4800 4763 c-114 -57 -162 -136 -140 -236 24 -115 112 -193 240 -213
43 -7 44 -6 27 10 -9 10 -15 22 -12 27 4 5 -3 9 -15 9 -12 0 -36 15 -54 33
-26 25 -33 40 -32 69 1 20 3 34 5 32 7 -7 32 36 26 45 -10 17 -23 101 -14 95
12 -7 11 10 -1 22 -16 16 -21 56 -9 70 6 7 8 18 5 23 -4 6 6 17 21 25 48 26 9
17 -47 -11z m15 -23 c3 -5 1 -10 -4 -10 -6 0 -11 5 -11 10 0 6 2 10 4 10 3 0
8 -4 11 -10z"/>
<path d="M4585 4120 c-42 -17 -70 -59 -70 -105 0 -49 22 -80 73 -102 40 -17
78 -8 114 25 87 80 -8 228 -117 182z m110 -70 c0 -18 -6 -26 -23 -28 -27 -4
-40 22 -22 44 19 22 45 13 45 -16z m-128 -2 c-3 -8 -6 -5 -6 6 -1 11 2 17 5
13 3 -3 4 -12 1 -19z"/>
<path d="M5273 4115 c-84 -36 -82 -159 3 -200 74 -35 154 17 154 99 0 50 -21
83 -66 102 -41 17 -50 17 -91 -1z m7 -49 c0 -17 -14 -29 -23 -20 -8 8 3 34 14
34 5 0 9 -6 9 -14z m115 4 c8 -14 -13 -50 -30 -50 -19 0 -27 16 -20 40 7 21
39 27 50 10z"/>
<path d="M4846 3633 c-13 -14 -5 -43 19 -61 56 -44 165 -36 206 16 24 31 10
41 -23 18 -14 -10 -44 -16 -79 -16 -47 0 -63 5 -87 25 -16 13 -32 22 -36 18z"/>
</g>
</svg>
